<svg xmlns="http://www.w3.org/2000/svg" width="512" height="512"><rect id="backgroundrect" width="100%" height="100%" x="0" y="0" fill="none" stroke="none"/><g class="currentLayer" style=""><title>Layer 1</title><path d="M336.9798994626999,305.372 h-17.501 l-6.571,-5.486 c20.791,-25.232 33.922,-57.054 33.922,-93.257 C346.8288994626999,127.632 283.3668994626999,64 204.60589946269988,64 C126.92289946269989,64 63.47089946269989,127.632 63.47089946269989,206.629 s63.452,142.628 142.225,142.628 c35.011,0 67.831,-13.167 92.991,-34.008 l6.561,5.487 v17.551 L414.6508994626999,448 L447.4708994626999,415.086 L336.9798994626999,305.372 zm-131.284,0 c-54.702,0 -98.463,-43.887 -98.463,-98.743 c0,-54.858 43.761,-98.742 98.463,-98.742 c54.7,0 98.462,43.884 98.462,98.742 c0,54.856 -43.762,98.743 -98.462,98.743 z" id="svg_1" class="selected" fill-opacity="1" fill="#119e47"/></g></svg>